# xmcd CD database file
#
# Track frame offsets:
#	150
#	15450
#	29747
#	46136
#	58862
#	72148
#	83882
#	97620
#	114989
#	131952
#	147407
#	165573
#	185675
#	195440
#	211361
#	226334
#	240229
#	257065
#	279255
#	296583
#	311742
#
# Disc length: 4388 seconds
#
# Revision: 0
# Processed by: cddbd v1.5.1PL0 Copyright (c) Steve Scherf et al.
# Submitted via: CDex 1.51
#
DISCID=27112215
DTITLE=Chitãozinho and Chororó - Na Aba do Meu Cury - 30 Anos
DYEAR=2004
DGENRE=Country
TTITLE0=Alo
TTITLE1=Chico Mineiro
TTITLE2=Doce Pecado
TTITLE3=Na Aba do Meu Chapeu
TTITLE4=Fio de Cabelo
TTITLE5=Estrada da Vida
TTITLE6=Adeus Paulistinha
TTITLE7=Asa Branca
TTITLE8=Ela Não Vai Mais Chorar
TTITLE9=Jeito de Cowboy
TTITLE10=Tristeza do Jeca
TTITLE11=Página Virada
TTITLE12=A Galopeira
TTITLE13=Festa de Peão
TTITLE14=Loira Gelada
TTITLE15=Nascemos pra Cantar
TTITLE16=Terra Tombada
TTITLE17=Evidências
TTITLE18=Ela Não Vai Mais Chorar
TTITLE19=Se Deus Me Ouvise
TTITLE20=Cowboy do Asfalto
EXTD=YEAR: 2004
EXTT0=
EXTT1=
EXTT2=
EXTT3=
EXTT4=
EXTT5=
EXTT6=
EXTT7=
EXTT8=
EXTT9=
EXTT10=
EXTT11=
EXTT12=
EXTT13=
EXTT14=
EXTT15=
EXTT16=
EXTT17=
EXTT18=
EXTT19=
EXTT20=
PLAYORDER=
